PathFileType	4	(X/Y/Z)	./resultDataOpenSim/trcMotMarkerGrf/sub10/qtm-01-04.trc
DataRate	CameraRate	NumFrames	NumMarkers	Units	OrigDataRate	OrigDataStartFrame	OrigNumFrames
250.000000	250.000000	13	24	m	250.000000	59	467
Frame#	Time	L.Toe.Tip			R.Toe.Tip			L.Ankle.Lat			R.Ankle.Lat			L.Ankle.Med			R.Ankle.Med			L.Heel			R.Heel			L.Knee.Lat			R.Knee.Lat			L.Knee.Med			R.Knee.Med			L.Thigh.Upper			R.Thigh.Upper			L.ASIS			R.ASIS			V.Sacral			L.Acromium			R.Acromium			C7			L.Elbow			R.Elbow			L.Wrist.Lat			R.Wrist.Lat
		X1	Y1	Z1	X2	Y2	Z2	X3	Y3	Z3	X4	Y4	Z4	X5	Y5	Z5	X6	Y6	Z6	X7	Y7	Z7	X8	Y8	Z8	X9	Y9	Z9	X10	Y10	Z10	X11	Y11	Z11	X12	Y12	Z12	X13	Y13	Z13	X14	Y14	Z14	X15	Y15	Z15	X16	Y16	Z16	X17	Y17	Z17	X18	Y18	Z18	X19	Y19	Z19	X20	Y20	Z20	X21	Y21	Z21	X22	Y22	Z22	X23	Y23	Z23	X24	Y24	Z24

59	0.232	-1.4646577	0.058737819	-0.17116484	-0.73986635	0.039716692	-0.0086582584	-1.4598278	0.19387114	-0.21177033	-0.87778731	0.051534873	0.032644108	-1.4454681	0.18966792	-0.12839409	-0.86453234	0.081369098	-0.049592764	-1.5053344	0.24416794	-0.16842552	-0.93068143	0.028089114	-0.013162437	-1.14606	0.40728726	-0.21959882	-0.86956413	0.45180052	0.070057103	-1.1340306	0.36667347	-0.10541152	-0.87120673	0.46048147	-0.057905454	-1.0490115	0.77496514	-0.24765164	-0.98878595	0.85485884	0.12979472	-0.97311419	0.88430947	-0.19511212	-0.9398884	0.93281127	0.040993558	-1.1552807	0.92852017	-0.055455105	-1.0126742	1.3859097	-0.22475253	-1.049332	1.3690582	0.097273754	-1.1142819	1.4048082	-0.0757935	-1.0719231	1.0448275	-0.29994966	-1.1841101	1.0549584	0.11881968	-0.86640292	0.90309523	-0.27186894	-1.1504191	0.82643119	0.1869752
60	0.236	-1.456527	0.061574871	-0.17143638	-0.73978058	0.039619521	-0.0087690702	-1.4490134	0.1966529	-0.21147578	-0.87783214	0.051500687	0.03269992	-1.4320269	0.19243094	-0.12884762	-0.86444737	0.081345337	-0.0495776	-1.4933022	0.2477185	-0.16784709	-0.93073653	0.028074857	-0.013098573	-1.1340451	0.40682812	-0.2195682	-0.86574101	0.45154428	0.070136923	-1.12134	0.36634531	-0.10515376	-0.86940583	0.4601085	-0.05762118	-1.0417517	0.77551957	-0.24699869	-0.98234847	0.85596938	0.13017609	-0.96694661	0.88552129	-0.19463356	-0.93343275	0.93363518	0.041371458	-1.1491342	0.92973518	-0.05488527	-1.0065941	1.3871217	-0.22438057	-1.0430045	1.3705236	0.097768533	-1.1083246	1.4061593	-0.075202405	-1.0669913	1.0463525	-0.29916772	-1.1765137	1.0558741	0.11982878	-0.86245409	0.9028878	-0.27197127	-1.1401403	0.82749528	0.18815532
61	0.24	-1.4473069	0.064489112	-0.17175111	-0.73966389	0.039510143	-0.0089144115	-1.4381206	0.19937045	-0.21107812	-0.8778966	0.051472668	0.032757595	-1.4183491	0.1951299	-0.12932616	-0.86432585	0.081330148	-0.04958081	-1.4813872	0.25088198	-0.16696743	-0.93078813	0.028062252	-0.013039116	-1.1217139	0.40649026	-0.21965157	-0.86228955	0.4512985	0.070245753	-1.1088099	0.36635647	-0.10482773	-0.86775528	0.4597547	-0.057298102	-1.0345151	0.77617708	-0.24642122	-0.97594485	0.85704298	0.13052482	-0.96071893	0.88685709	-0.19421604	-0.92701996	0.93438189	0.041682818	-1.1427624	0.93079908	-0.054262585	-1.0004906	1.3883311	-0.22404152	-1.0365642	1.3719902	0.098221289	-1.1023475	1.4075644	-0.074600448	-1.0620999	1.047878	-0.29840759	-1.1688876	1.05681	0.12092286	-0.85847819	0.90267097	-0.27212141	-1.1297748	0.8285591	0.18927137
62	0.244	-1.4370246	0.06729977	-0.17199374	-0.73951857	0.039386703	-0.009082052	-1.427083	0.20200369	-0.21055978	-0.8779722	0.051446053	0.032815442	-1.4055605	0.19756661	-0.12939791	-0.86417662	0.081321813	-0.049601046	-1.4696929	0.253692	-0.16598969	-0.93083495	0.028053015	-0.012982767	-1.1088888	0.40628489	-0.21991554	-0.85949097	0.45123386	0.070514413	-1.0964812	0.36666799	-0.10443143	-0.86626762	0.4594357	-0.056890774	-1.0273701	0.77692346	-0.24594404	-0.96952857	0.85808997	0.13085052	-0.95437856	0.88829697	-0.19385539	-0.92058536	0.93507921	0.041948275	-1.1363635	0.93181464	-0.053649882	-0.99447825	1.3895455	-0.22377314	-1.0300179	1.3734504	0.098628337	-1.0963545	1.4090118	-0.073994527	-1.0572539	1.0494097	-0.29767728	-1.1611973	1.0577808	0.12210557	-0.85447947	0.90247072	-0.2723027	-1.1195245	0.82958709	0.19024725
63	0.248	-1.4257403	0.069857489	-0.17208626	-0.73935165	0.039252727	-0.0092600627	-1.415866	0.20449967	-0.20993095	-0.87804702	0.051418607	0.03287246	-1.3936284	0.19975791	-0.12902919	-0.86399684	0.081321006	-0.049637543	-1.4582996	0.25614329	-0.16508472	-0.9308779	0.028049289	-0.012927281	-1.0958207	0.40625203	-0.22021122	-0.85724284	0.45135656	0.070922763	-1.0843032	0.36725285	-0.10396121	-0.86483344	0.45918463	-0.056400625	-1.0203517	0.77776719	-0.24554544	-0.96308733	0.85910466	0.13115607	-0.94793718	0.8898162	-0.19355515	-0.91409058	0.93575343	0.042184219	-1.1300914	0.93286341	-0.053088577	-0.98859826	1.3907626	-0.22359964	-1.0233571	1.3749024	0.098984359	-1.0903574	1.4104943	-0.073388322	-1.0524558	1.0509484	-0.29697235	-1.1534275	1.0587822	0.12334882	-0.85050476	0.90229726	-0.27250857	-1.1093842	0.83058473	0.19110025
64	0.252	-1.4135358	0.072097234	-0.17201355	-0.73917155	0.039117478	-0.0094419087	-1.4044702	0.20679784	-0.20922617	-0.87811165	0.051391191	0.032928343	-1.3819756	0.20181795	-0.12840848	-0.86377589	0.081328519	-0.049691612	-1.4471672	0.25820703	-0.16428023	-0.93091911	0.02805385	-0.012870848	-1.0832072	0.40645113	-0.22019168	-0.85531122	0.45160788	0.071380113	-1.072186	0.36807461	-0.103435	-0.86315497	0.4590427	-0.0558914	-1.013424	0.77872038	-0.24517101	-0.95669947	0.86006492	0.13143165	-0.94150646	0.89138423	-0.19334337	-0.90755433	0.93642645	0.042403065	-1.1240047	0.9339894	-0.052595206	-0.98279262	1.391981	-0.22349444	-1.0165818	1.3763568	0.099286803	-1.0843663	1.4120052	-0.072781522	-1.0477046	1.052491	-0.29627611	-1.1455575	1.0597775	0.12458103	-0.84660562	0.90214811	-0.27274179	-1.0992387	0.83159183	0.19189663
65	0.256	-1.4005138	0.074031913	-0.1718141	-0.73898688	0.038991531	-0.0096245756	-1.3928867	0.20885107	-0.2084755	-0.87816209	0.051366051	0.032985401	-1.3702025	0.2038075	-0.12769138	-0.86350612	0.081343715	-0.049760482	-1.4361961	0.25985769	-0.16350388	-0.93096001	0.028067704	-0.012811396	-1.0714786	0.40690962	-0.21967172	-0.85351957	0.45191751	0.071827711	-1.0599922	0.36909275	-0.10292895	-0.86090088	0.45903817	-0.055436594	-1.0065599	0.77978286	-0.24480632	-0.95052519	0.86095176	0.13165295	-0.93521424	0.89297288	-0.19324943	-0.90103468	0.93711672	0.0426185	-1.118084	0.93519175	-0.052177741	-0.97699911	1.3932112	-0.2234078	-1.009749	1.3778295	0.099546121	-1.078385	1.4135349	-0.072174456	-1.0430001	1.0540361	-0.29557129	-1.1375241	1.0607127	0.12570154	-0.84280884	0.90201907	-0.27300097	-1.0889806	0.83264389	0.19269327
66	0.26	-1.386783	0.075706266	-0.17153366	-0.73880865	0.038882739	-0.0098019283	-1.38109	0.21064506	-0.20768608	-0.87819901	0.051346645	0.033049441	-1.3582163	0.20571453	-0.12693874	-0.86319553	0.081364765	-0.049829242	-1.4253096	0.2610893	-0.16267682	-0.93100048	0.028088282	-0.012746314	-1.0602629	0.40760122	-0.21886522	-0.85172929	0.45218505	0.072249794	-1.0474143	0.3703085	-0.10258962	-0.85807287	0.45916766	-0.055065824	-0.99978875	0.78094791	-0.24447332	-0.94468978	0.86175542	0.13179676	-0.9291062	0.89457821	-0.19326356	-0.89459088	0.93784185	0.042851769	-1.1122703	0.93643562	-0.05184083	-0.97121145	1.3944643	-0.22331703	-1.0029525	1.379331	0.099784746	-1.0724151	1.4150788	-0.071571605	-1.0383437	1.0555825	-0.29484889	-1.1292418	1.0615486	0.12663859	-0.83911944	0.90190867	-0.27327411	-1.0785405	0.83375313	0.19352361
67	0.264	-1.3724166	0.077159472	-0.17120283	-0.73865154	0.038795015	-0.0099606827	-1.3690672	0.21220942	-0.2068533	-0.87822587	0.05133664	0.033125871	-1.3460831	0.20750709	-0.1261556	-0.86287112	0.081391099	-0.049874134	-1.4144565	0.26191692	-0.16176255	-0.93104032	0.028112142	-0.012675327	-1.0488762	0.40848474	-0.21812009	-0.84985466	0.45233656	0.072656847	-1.0340997	0.37175261	-0.10254038	-0.85513462	0.45938215	-0.054763258	-0.99314771	0.78221143	-0.24417098	-0.93918762	0.86247922	0.13187262	-0.92314548	0.89621819	-0.19334485	-0.88828264	0.93861133	0.043122883	-1.1065015	0.93768534	-0.051584567	-0.96545752	1.3957415	-0.22323112	-0.99625556	1.3808628	0.10002049	-1.0664603	1.4166344	-0.070981728	-1.0337353	1.0571276	-0.29410783	-1.1207208	1.0623061	0.12744018	-0.83553611	0.90181859	-0.2735453	-1.0679193	0.83491899	0.19440274
68	0.268	-1.3574899	0.078414837	-0.17083384	-0.73853066	0.038727848	-0.010084697	-1.3568321	0.21359638	-0.20597848	-0.87824917	0.051337575	0.033215418	-1.3338155	0.20917651	-0.12535075	-0.86256863	0.081425161	-0.049875916	-1.4035568	0.26237691	-0.1607808	-0.93108038	0.028138788	-0.012602671	-1.0370373	0.40953878	-0.2175708	-0.84791042	0.45238946	0.073078482	-1.020259	0.37335278	-0.10265969	-0.8525959	0.45960207	-0.054491207	-0.98664154	0.783572	-0.24388151	-0.93392889	0.86314295	0.13192463	-0.91727084	0.89790449	-0.19346264	-0.8821583	0.93942419	0.043441294	-1.1007402	0.93893058	-0.051409345	-0.95976567	1.3970427	-0.22315558	-0.98966724	1.3824205	0.10025889	-1.060527	1.4181907	-0.070415501	-1.0291727	1.0586721	-0.29335126	-1.1121239	1.0630586	0.12827751	-0.83206077	0.90175253	-0.27380277	-1.0572221	0.83614096	0.19532207
69	0.272	-1.3421712	0.079472935	-0.17041167	-0.73845506	0.038676887	-0.010162863	-1.3444123	0.21482799	-0.20507476	-0.87828021	0.051349104	0.03331654	-1.3212899	0.21072052	-0.12455852	-0.8623193	0.08147028	-0.049826416	-1.392474	0.26251515	-0.15979036	-0.93112141	0.02817046	-0.012534935	-1.024879	0.41075217	-0.21715122	-0.84599255	0.45240277	0.073538468	-1.0068529	0.37488242	-0.10253659	-0.85057751	0.45977147	-0.054206498	-0.98025606	0.78502637	-0.24361138	-0.92884492	0.86376634	0.13199337	-0.9114427	0.89962549	-0.19360808	-0.87620972	0.94028141	0.043817081	-1.0949883	0.94018551	-0.051328305	-0.95414787	1.3983682	-0.22307542	-0.98316913	1.3839972	0.10050494	-1.0546218	1.4197312	-0.069883555	-1.0246576	1.060221	-0.29258729	-1.1036155	1.0638159	0.12927121	-0.82869529	0.9017144	-0.27404191	-1.0465738	0.83741686	0.19625493
70	0.276	-1.3266336	0.080310694	-0.16992598	-0.73842455	0.038638255	-0.010191791	-1.3318271	0.21586173	-0.20415602	-0.8783307	0.051368839	0.033431253	-1.3084293	0.21208486	-0.12379159	-0.86214512	0.081527981	-0.049723958	-1.3810821	0.26235637	-0.15882618	-0.93116347	0.028208401	-0.01247671	-1.012605	0.41210337	-0.21676878	-0.84421549	0.45240482	0.074035825	-0.99455841	0.37619183	-0.1018942	-0.848883	0.45989522	-0.05387428	-0.9739848	0.78656518	-0.2433801	-0.92393223	0.8643566	0.13208883	-0.90565563	0.9013576	-0.19377473	-0.87039932	0.94118698	0.044257378	-1.0892818	0.94146979	-0.051383695	-0.94859801	1.3997194	-0.22297301	-0.97674789	1.3855864	0.10076826	-1.0487478	1.4212482	-0.069393908	-1.0201971	1.06178	-0.29183119	-1.0952373	1.0644871	0.13035827	-0.82543638	0.90170756	-0.27426264	-1.0359651	0.83874341	0.19719078
71	0.28	-1.3108994	0.080907947	-0.16941313	-0.73843412	0.038614077	-0.010172366	-1.319073	0.21660399	-0.20322168	-0.87840481	0.051391164	0.033561578	-1.2953295	0.21315777	-0.12301411	-0.86205881	0.081600277	-0.049571496	-1.3693516	0.26189413	-0.15785492	-0.93120638	0.028251066	-0.012428599	-1.0003355	0.41356175	-0.21637323	-0.84264126	0.45240011	0.074556111	-0.98296846	0.37741338	-0.10094827	-0.84727531	0.46001416	-0.053474151	-0.96784006	0.78817902	-0.2431874	-0.91921263	0.86492366	0.13220809	-0.89992006	0.90308954	-0.19395009	-0.86475142	0.94213672	0.044733779	-1.0836664	0.94279412	-0.051640403	-0.94310112	1.4011009	-0.22284682	-0.97039581	1.3871925	0.10104912	-1.0429007	1.4227482	-0.068945467	-1.0157976	1.0633564	-0.29109659	-1.0870101	1.0650367	0.13140124	-0.82228162	0.90173768	-0.27446173	-1.0252687	0.84012473	0.19814686
